<mxfile host="Electron" agent="Mozilla/5.0 (Windows NT 10.0; Win64; x64) AppleWebKit/537.36 (KHTML, like Gecko) draw.io/24.7.8 Chrome/128.0.6613.36 Electron/32.0.1 Safari/537.36" version="24.7.8">
  <diagram id="C5RBs43oDa-KdzZeNtuy" name="Page-1">
    <mxGraphModel dx="1077" dy="660" grid="1" gridSize="10" guides="1" tooltips="1" connect="1" arrows="1" fold="1" page="1" pageScale="1" pageWidth="827" pageHeight="1169" math="0" shadow="0">
      <root>
        <mxCell id="WIyWlLk6GJQsqaUBKTNV-0" />
        <mxCell id="WIyWlLk6GJQsqaUBKTNV-1" parent="WIyWlLk6GJQsqaUBKTNV-0" />
        <mxCell id="w616AMXTrct-kiWa2tC6-5" value="" style="edgeStyle=orthogonalEdgeStyle;rounded=0;orthogonalLoop=1;jettySize=auto;html=1;entryX=0;entryY=0.5;entryDx=0;entryDy=0;" edge="1" parent="WIyWlLk6GJQsqaUBKTNV-1" source="w616AMXTrct-kiWa2tC6-2" target="w616AMXTrct-kiWa2tC6-21">
          <mxGeometry relative="1" as="geometry">
            <mxPoint x="230" y="120" as="targetPoint" />
          </mxGeometry>
        </mxCell>
        <mxCell id="w616AMXTrct-kiWa2tC6-2" value="Player wants to activate room(s)" style="strokeWidth=2;html=1;shape=mxgraph.flowchart.start_1;whiteSpace=wrap;" vertex="1" parent="WIyWlLk6GJQsqaUBKTNV-1">
          <mxGeometry x="50" y="90" width="100" height="60" as="geometry" />
        </mxCell>
        <mxCell id="w616AMXTrct-kiWa2tC6-9" value="" style="edgeStyle=orthogonalEdgeStyle;rounded=0;orthogonalLoop=1;jettySize=auto;html=1;exitX=1;exitY=0.5;exitDx=0;exitDy=0;" edge="1" parent="WIyWlLk6GJQsqaUBKTNV-1" source="w616AMXTrct-kiWa2tC6-21" target="w616AMXTrct-kiWa2tC6-8">
          <mxGeometry relative="1" as="geometry">
            <mxPoint x="330" y="120" as="sourcePoint" />
          </mxGeometry>
        </mxCell>
        <mxCell id="w616AMXTrct-kiWa2tC6-11" value="" style="edgeStyle=orthogonalEdgeStyle;rounded=0;orthogonalLoop=1;jettySize=auto;html=1;" edge="1" parent="WIyWlLk6GJQsqaUBKTNV-1" source="w616AMXTrct-kiWa2tC6-8" target="w616AMXTrct-kiWa2tC6-20">
          <mxGeometry relative="1" as="geometry">
            <mxPoint x="309.99047619047633" y="250.02857142857135" as="targetPoint" />
            <Array as="points">
              <mxPoint x="520" y="250" />
            </Array>
          </mxGeometry>
        </mxCell>
        <mxCell id="w616AMXTrct-kiWa2tC6-8" value="Is logged-in user&amp;nbsp;&lt;div&gt;in the Clan with specified Room(s)&lt;/div&gt;" style="rhombus;whiteSpace=wrap;html=1;strokeWidth=2;" vertex="1" parent="WIyWlLk6GJQsqaUBKTNV-1">
          <mxGeometry x="440" y="65" width="160" height="110" as="geometry" />
        </mxCell>
        <mxCell id="w616AMXTrct-kiWa2tC6-12" value="No" style="text;html=1;align=center;verticalAlign=middle;whiteSpace=wrap;rounded=0;" vertex="1" parent="WIyWlLk6GJQsqaUBKTNV-1">
          <mxGeometry x="470" y="190" width="60" height="30" as="geometry" />
        </mxCell>
        <mxCell id="w616AMXTrct-kiWa2tC6-17" value="" style="edgeStyle=orthogonalEdgeStyle;rounded=0;orthogonalLoop=1;jettySize=auto;html=1;entryX=1;entryY=0.5;entryDx=0;entryDy=0;" edge="1" parent="WIyWlLk6GJQsqaUBKTNV-1" source="w616AMXTrct-kiWa2tC6-13" target="w616AMXTrct-kiWa2tC6-18">
          <mxGeometry relative="1" as="geometry">
            <mxPoint x="300" y="340.02857142857135" as="targetPoint" />
            <Array as="points">
              <mxPoint x="720" y="340" />
            </Array>
          </mxGeometry>
        </mxCell>
        <mxCell id="w616AMXTrct-kiWa2tC6-13" value="Set isActive field for all specified rooms as true" style="strokeWidth=2;html=1;shape=mxgraph.flowchart.stored_data;whiteSpace=wrap;" vertex="1" parent="WIyWlLk6GJQsqaUBKTNV-1">
          <mxGeometry x="670" y="90" width="100" height="60" as="geometry" />
        </mxCell>
        <mxCell id="w616AMXTrct-kiWa2tC6-14" style="edgeStyle=orthogonalEdgeStyle;rounded=0;orthogonalLoop=1;jettySize=auto;html=1;entryX=0;entryY=0.5;entryDx=0;entryDy=0;entryPerimeter=0;" edge="1" parent="WIyWlLk6GJQsqaUBKTNV-1" source="w616AMXTrct-kiWa2tC6-8" target="w616AMXTrct-kiWa2tC6-13">
          <mxGeometry relative="1" as="geometry" />
        </mxCell>
        <mxCell id="w616AMXTrct-kiWa2tC6-15" value="Yes" style="text;html=1;align=center;verticalAlign=middle;whiteSpace=wrap;rounded=0;" vertex="1" parent="WIyWlLk6GJQsqaUBKTNV-1">
          <mxGeometry x="600" y="90" width="60" height="30" as="geometry" />
        </mxCell>
        <mxCell id="w616AMXTrct-kiWa2tC6-18" value="API sends&amp;nbsp;&lt;div&gt;204&lt;/div&gt;" style="shape=parallelogram;html=1;strokeWidth=2;perimeter=parallelogramPerimeter;whiteSpace=wrap;rounded=1;arcSize=12;size=0.23;" vertex="1" parent="WIyWlLk6GJQsqaUBKTNV-1">
          <mxGeometry x="230" y="310" width="100" height="60" as="geometry" />
        </mxCell>
        <mxCell id="w616AMXTrct-kiWa2tC6-20" value="API sends&amp;nbsp;&lt;div&gt;403 error&lt;/div&gt;" style="shape=parallelogram;html=1;strokeWidth=2;perimeter=parallelogramPerimeter;whiteSpace=wrap;rounded=1;arcSize=12;size=0.23;" vertex="1" parent="WIyWlLk6GJQsqaUBKTNV-1">
          <mxGeometry x="230" y="220" width="100" height="60" as="geometry" />
        </mxCell>
        <mxCell id="w616AMXTrct-kiWa2tC6-21" value="Game sends a request to&lt;div&gt;activate room(s)&lt;/div&gt;" style="shape=parallelogram;html=1;strokeWidth=2;perimeter=parallelogramPerimeter;whiteSpace=wrap;rounded=1;arcSize=12;size=0.23;" vertex="1" parent="WIyWlLk6GJQsqaUBKTNV-1">
          <mxGeometry x="230" y="80" width="120" height="80" as="geometry" />
        </mxCell>
        <mxCell id="w616AMXTrct-kiWa2tC6-23" value="API waits 6h before room deactivation" style="strokeWidth=2;html=1;shape=mxgraph.flowchart.delay;whiteSpace=wrap;" vertex="1" parent="WIyWlLk6GJQsqaUBKTNV-1">
          <mxGeometry x="460" y="470" width="100" height="60" as="geometry" />
        </mxCell>
        <mxCell id="w616AMXTrct-kiWa2tC6-24" value="Game receives response" style="strokeWidth=2;html=1;shape=mxgraph.flowchart.terminator;whiteSpace=wrap;" vertex="1" parent="WIyWlLk6GJQsqaUBKTNV-1">
          <mxGeometry x="50" y="270" width="100" height="60" as="geometry" />
        </mxCell>
        <mxCell id="w616AMXTrct-kiWa2tC6-25" style="edgeStyle=orthogonalEdgeStyle;rounded=0;orthogonalLoop=1;jettySize=auto;html=1;exitX=0;exitY=0.5;exitDx=0;exitDy=0;entryX=1;entryY=0.5;entryDx=0;entryDy=0;entryPerimeter=0;" edge="1" parent="WIyWlLk6GJQsqaUBKTNV-1" source="w616AMXTrct-kiWa2tC6-20" target="w616AMXTrct-kiWa2tC6-24">
          <mxGeometry relative="1" as="geometry" />
        </mxCell>
        <mxCell id="w616AMXTrct-kiWa2tC6-27" style="edgeStyle=orthogonalEdgeStyle;rounded=0;orthogonalLoop=1;jettySize=auto;html=1;exitX=0;exitY=0.5;exitDx=0;exitDy=0;entryX=1;entryY=0.5;entryDx=0;entryDy=0;entryPerimeter=0;" edge="1" parent="WIyWlLk6GJQsqaUBKTNV-1" source="w616AMXTrct-kiWa2tC6-18" target="w616AMXTrct-kiWa2tC6-24">
          <mxGeometry relative="1" as="geometry" />
        </mxCell>
        <mxCell id="w616AMXTrct-kiWa2tC6-28" style="edgeStyle=orthogonalEdgeStyle;rounded=0;orthogonalLoop=1;jettySize=auto;html=1;exitX=0.93;exitY=0.5;exitDx=0;exitDy=0;exitPerimeter=0;entryX=0.5;entryY=0;entryDx=0;entryDy=0;entryPerimeter=0;" edge="1" parent="WIyWlLk6GJQsqaUBKTNV-1" source="w616AMXTrct-kiWa2tC6-13" target="w616AMXTrct-kiWa2tC6-23">
          <mxGeometry relative="1" as="geometry">
            <Array as="points">
              <mxPoint x="790" y="120" />
              <mxPoint x="790" y="410" />
              <mxPoint x="510" y="410" />
            </Array>
          </mxGeometry>
        </mxCell>
        <mxCell id="w616AMXTrct-kiWa2tC6-29" value="Set isActive to&amp;nbsp;&lt;div&gt;false for all rooms&lt;/div&gt;" style="strokeWidth=2;html=1;shape=mxgraph.flowchart.stored_data;whiteSpace=wrap;" vertex="1" parent="WIyWlLk6GJQsqaUBKTNV-1">
          <mxGeometry x="670" y="470" width="120" height="60" as="geometry" />
        </mxCell>
        <mxCell id="w616AMXTrct-kiWa2tC6-30" style="edgeStyle=orthogonalEdgeStyle;rounded=0;orthogonalLoop=1;jettySize=auto;html=1;exitX=1;exitY=0.5;exitDx=0;exitDy=0;exitPerimeter=0;entryX=0;entryY=0.5;entryDx=0;entryDy=0;entryPerimeter=0;" edge="1" parent="WIyWlLk6GJQsqaUBKTNV-1" source="w616AMXTrct-kiWa2tC6-23" target="w616AMXTrct-kiWa2tC6-29">
          <mxGeometry relative="1" as="geometry" />
        </mxCell>
        <mxCell id="w616AMXTrct-kiWa2tC6-31" value="Room(s) is deactivated" style="strokeWidth=2;html=1;shape=mxgraph.flowchart.terminator;whiteSpace=wrap;" vertex="1" parent="WIyWlLk6GJQsqaUBKTNV-1">
          <mxGeometry x="570" y="570" width="100" height="60" as="geometry" />
        </mxCell>
        <mxCell id="w616AMXTrct-kiWa2tC6-32" style="edgeStyle=orthogonalEdgeStyle;rounded=0;orthogonalLoop=1;jettySize=auto;html=1;exitX=0.93;exitY=0.5;exitDx=0;exitDy=0;exitPerimeter=0;entryX=1;entryY=0.5;entryDx=0;entryDy=0;entryPerimeter=0;" edge="1" parent="WIyWlLk6GJQsqaUBKTNV-1" source="w616AMXTrct-kiWa2tC6-29" target="w616AMXTrct-kiWa2tC6-31">
          <mxGeometry relative="1" as="geometry">
            <Array as="points">
              <mxPoint x="800" y="500" />
              <mxPoint x="800" y="600" />
            </Array>
          </mxGeometry>
        </mxCell>
        <mxCell id="w616AMXTrct-kiWa2tC6-33" value="" style="endArrow=none;dashed=1;html=1;dashPattern=1 3;strokeWidth=2;rounded=0;" edge="1" parent="WIyWlLk6GJQsqaUBKTNV-1">
          <mxGeometry width="50" height="50" relative="1" as="geometry">
            <mxPoint x="180" y="640" as="sourcePoint" />
            <mxPoint x="180" y="40" as="targetPoint" />
          </mxGeometry>
        </mxCell>
        <mxCell id="w616AMXTrct-kiWa2tC6-34" value="" style="endArrow=none;dashed=1;html=1;dashPattern=1 3;strokeWidth=2;rounded=0;" edge="1" parent="WIyWlLk6GJQsqaUBKTNV-1">
          <mxGeometry width="50" height="50" relative="1" as="geometry">
            <mxPoint x="400" y="640" as="sourcePoint" />
            <mxPoint x="400" y="40" as="targetPoint" />
          </mxGeometry>
        </mxCell>
        <mxCell id="w616AMXTrct-kiWa2tC6-35" value="&lt;b&gt;Game side&lt;/b&gt;" style="text;html=1;align=center;verticalAlign=middle;whiteSpace=wrap;rounded=0;" vertex="1" parent="WIyWlLk6GJQsqaUBKTNV-1">
          <mxGeometry x="60" y="30" width="70" height="30" as="geometry" />
        </mxCell>
        <mxCell id="w616AMXTrct-kiWa2tC6-36" value="&lt;b&gt;Server side&lt;/b&gt;" style="text;html=1;align=center;verticalAlign=middle;whiteSpace=wrap;rounded=0;" vertex="1" parent="WIyWlLk6GJQsqaUBKTNV-1">
          <mxGeometry x="585" y="30" width="70" height="30" as="geometry" />
        </mxCell>
        <mxCell id="w616AMXTrct-kiWa2tC6-37" value="&lt;b&gt;Internet&lt;/b&gt;" style="text;html=1;align=center;verticalAlign=middle;whiteSpace=wrap;rounded=0;" vertex="1" parent="WIyWlLk6GJQsqaUBKTNV-1">
          <mxGeometry x="255" y="30" width="70" height="30" as="geometry" />
        </mxCell>
        <mxCell id="w616AMXTrct-kiWa2tC6-38" value="Room activation and deactivation processes" style="swimlane;whiteSpace=wrap;html=1;startSize=23;" vertex="1" parent="WIyWlLk6GJQsqaUBKTNV-1">
          <mxGeometry x="30" y="10" width="780" height="640" as="geometry" />
        </mxCell>
      </root>
    </mxGraphModel>
  </diagram>
</mxfile>
